<?xml version="1.0" standalone="no"?>
<!DOCTYPE svg PUBLIC "-//W3C//DTD SVG 20010904//EN"
 "http://www.w3.org/TR/2001/REC-SVG-20010904/DTD/svg10.dtd">
<svg version="1.0" xmlns="http://www.w3.org/2000/svg"
 width="1024.000000pt" height="1024.000000pt" viewBox="0 0 1024.000000 1024.000000"
 preserveAspectRatio="xMidYMid meet">
<metadata>
Created by potrace 1.14, written by Peter Selinger 2001-2017
</metadata>
<g transform="translate(0.000000,1024.000000) scale(0.100000,-0.100000)"
fill="#000000" stroke="none">
<path d="M3965 8481 c-288 -83 -474 -326 -475 -618 0 -112 14 -172 67 -282
190 -396 710 -483 1024 -171 134 133 197 300 186 489 -10 166 -68 293 -192
416 -92 92 -166 136 -281 165 -98 25 -244 26 -329 1z"/>
<path d="M7015 7950 c-205 -28 -396 -163 -484 -342 -60 -121 -74 -190 -69
-323 8 -178 64 -303 193 -431 291 -288 779 -224 993 130 81 133 111 310 78
460 -53 237 -244 436 -471 490 -82 20 -168 25 -240 16z"/>
<path d="M8921 7458 c-34 -17 -54 -38 -88 -92 -236 -380 -319 -501 -462 -676
-169 -207 -360 -377 -495 -441 l-60 -28 -38 59 c-135 206 -389 302 -573 214
-110 -51 -219 -185 -316 -386 l-22 -47 -66 -7 c-36 -4 -140 -4 -231 0 -250 9
-544 56 -845 133 -77 20 -156 38 -175 40 -19 2 -276 -26 -570 -62 l-535 -65
-21 23 c-12 12 -142 159 -288 327 -240 274 -266 308 -266 340 0 84 -43 192
-101 255 -62 67 -126 96 -229 105 -47 4 -152 23 -235 43 -366 87 -567 111
-915 111 -237 0 -292 -3 -400 -21 -208 -37 -404 -102 -488 -163 -72 -52 -101
-155 -67 -238 48 -114 166 -152 290 -94 268 127 664 155 1149 82 71 -11 131
-22 133 -23 1 -2 -10 -21 -26 -43 -51 -70 -694 -1157 -727 -1230 -123 -264
-105 -543 43 -673 l45 -41 124 -461 c68 -254 124 -468 124 -475 0 -16 84 9
-710 -204 -371 -99 -692 -187 -713 -197 -20 -9 -55 -35 -76 -58 -144 -157 -33
-413 180 -415 29 0 350 82 883 224 917 246 906 242 960 330 57 92 55 109 -88
647 -70 261 -129 480 -132 488 -4 11 0 11 18 -1 13 -8 197 -115 411 -238 213
-122 387 -227 387 -233 0 -5 -165 -296 -367 -646 l-368 -636 0 -81 c0 -72 3
-86 30 -129 87 -138 266 -163 381 -52 31 31 157 240 479 799 398 690 437 761
442 812 3 33 1 74 -7 101 -26 93 -46 107 -648 455 l-559 322 194 327 c107 179
251 422 321 539 70 116 129 211 133 210 4 -2 115 -127 247 -278 252 -287 289
-320 361 -320 20 0 289 30 598 67 l562 67 158 -37 c362 -85 630 -125 896 -134
142 -5 177 -9 177 -20 0 -48 72 -132 137 -160 20 -8 35 -23 39 -37 3 -12 6
-173 7 -357 l2 -334 -26 -62 c-57 -132 -183 -295 -399 -516 l-125 -129 29 -20
28 -21 -620 -621 c-408 -409 -627 -635 -641 -663 -28 -57 -35 -113 -21 -171
33 -139 175 -220 317 -182 45 12 86 51 580 543 l532 530 15 -54 c8 -30 101
-375 206 -768 105 -393 198 -727 205 -742 22 -41 75 -90 120 -110 94 -43 229
-11 295 69 38 46 64 131 56 182 -3 21 -83 325 -177 675 -94 350 -168 639 -165
642 2 3 24 -14 49 -36 24 -23 48 -41 53 -41 12 0 251 243 347 352 212 241 361
486 397 649 20 91 8 253 -30 394 -111 419 -120 478 -120 765 0 154 7 224 36
351 l15 67 46 11 c101 26 256 115 395 228 101 82 312 304 416 438 188 242 454
658 472 738 36 163 -136 291 -289 215z"/>
</g>
</svg>
