<?xml version="1.0" standalone="no"?>
<!DOCTYPE svg PUBLIC "-//W3C//DTD SVG 20010904//EN"
 "http://www.w3.org/TR/2001/REC-SVG-20010904/DTD/svg10.dtd">
<svg version="1.0" xmlns="http://www.w3.org/2000/svg"
 width="700.000000pt" height="700.000000pt" viewBox="0 0 700.000000 700.000000"
 preserveAspectRatio="xMidYMid meet">
<metadata>
Created by potrace 1.14, written by Peter Selinger 2001-2017
</metadata>
<g transform="translate(0.000000,700.000000) scale(0.100000,-0.100000)"
fill="#000000" stroke="none">
<path d="M2684 5789 c-182 -68 -291 -215 -298 -404 -11 -277 249 -496 521
-439 161 33 275 135 333 295 15 40 19 74 17 150 -2 90 -5 102 -41 172 -59 118
-141 188 -265 229 -72 24 -198 23 -267 -3z"/>
<path d="M4735 5421 c-199 -59 -328 -237 -320 -441 7 -157 101 -303 239 -370
80 -39 133 -49 227 -46 131 5 259 79 333 190 48 73 66 126 73 212 15 203 -103
380 -301 451 -64 22 -181 24 -251 4z"/>
<path d="M6103 5099 c-32 -16 -53 -42 -118 -149 -71 -116 -228 -344 -258 -375
-7 -6 -40 -44 -75 -83 -96 -107 -260 -233 -303 -232 -8 1 -27 21 -43 46 -15
25 -51 62 -80 84 -113 85 -243 95 -340 26 -57 -40 -94 -88 -151 -192 -51 -93
-35 -85 -175 -87 -69 0 -253 11 -273 18 -7 2 -30 6 -52 9 -89 12 -192 33 -329
67 -114 29 -183 33 -256 14 -8 -2 -40 -7 -70 -10 -30 -3 -89 -10 -130 -15 -41
-5 -95 -11 -120 -14 -25 -3 -101 -12 -169 -21 -68 -9 -124 -15 -126 -13 -13
16 -252 289 -299 342 -82 93 -88 102 -93 150 -15 131 -113 226 -234 226 -19 0
-72 9 -119 21 -47 11 -98 23 -115 26 -16 2 -46 8 -65 13 -19 5 -60 12 -90 15
-30 4 -60 8 -67 10 -54 17 -409 26 -523 13 -195 -23 -384 -87 -431 -146 -44
-56 -33 -150 22 -191 46 -34 96 -38 155 -11 130 58 257 81 446 82 159 1 423
-28 423 -47 0 -6 -107 -189 -238 -408 -131 -219 -252 -426 -268 -461 -78 -167
-68 -358 23 -447 42 -41 38 -29 107 -289 15 -58 45 -169 66 -248 21 -78 36
-144 34 -146 -2 -3 -193 -55 -424 -116 -588 -157 -554 -146 -597 -191 -98
-103 -33 -271 109 -283 20 -1 91 12 157 30 67 17 225 60 351 94 127 34 271 72
320 85 380 99 419 114 450 174 28 56 26 87 -19 261 -2 8 -11 42 -20 75 -10 33
-28 101 -41 150 -13 50 -35 132 -49 184 -14 52 -24 96 -22 98 3 3 468 -261
534 -304 l23 -14 -22 -37 c-12 -20 -73 -127 -137 -237 -63 -110 -146 -254
-185 -320 -160 -276 -167 -290 -167 -342 0 -160 207 -229 303 -101 21 27 109
177 195 330 11 18 45 78 77 133 209 361 259 447 303 525 52 92 52 161 -1 222
-13 15 -192 124 -398 243 -206 119 -378 220 -383 225 -5 5 55 116 139 257 81
136 180 301 218 366 l71 119 35 -39 c20 -21 65 -72 101 -113 35 -41 67 -77 70
-80 3 -3 34 -38 69 -78 84 -96 105 -106 200 -98 42 3 85 8 97 10 11 2 54 7 95
11 40 4 76 8 79 10 3 2 38 6 78 10 41 3 82 8 91 10 10 2 42 6 72 9 30 4 68 8
84 10 122 16 156 17 204 2 28 -8 51 -13 51 -11 0 3 11 0 25 -5 14 -5 36 -12
48 -14 12 -2 72 -14 132 -25 61 -12 128 -23 150 -26 22 -2 58 -7 80 -10 48 -7
158 -13 238 -14 46 -1 57 -4 57 -18 0 -26 50 -84 86 -99 l34 -14 1 -83 c1 -45
2 -143 4 -217 3 -115 0 -158 -18 -225 -19 -68 -164 -252 -320 -405 -33 -33
-36 -39 -22 -50 9 -7 14 -17 13 -21 -2 -5 -195 -201 -429 -436 -451 -452 -447
-448 -441 -532 9 -119 136 -188 246 -135 17 8 188 172 381 364 240 241 352
346 357 337 4 -7 9 -24 12 -38 2 -13 43 -168 91 -344 48 -176 104 -387 126
-470 21 -82 47 -167 56 -188 56 -128 240 -131 303 -7 24 47 25 90 4 167 -8 32
-28 105 -43 163 -44 162 -80 297 -106 390 -12 47 -25 96 -28 110 -3 14 -14 57
-25 97 -19 70 -19 71 -1 60 11 -7 19 -15 19 -19 0 -4 9 -12 20 -18 18 -10 30
-1 104 73 217 220 346 395 405 552 41 107 34 183 -40 455 -38 143 -40 152 -44
340 -4 168 12 301 39 326 6 5 38 21 71 34 233 91 513 390 770 822 64 107 70
124 60 175 -8 44 -63 103 -96 104 -13 0 -32 2 -41 4 -9 2 -34 -5 -55 -16z"/>
</g>
</svg>
